<svg xmlns="http://www.w3.org/2000/svg" width="640" height="480" viewBox="0 0 640 480" font-family="Helvetica, Arial, sans-serif">
<rect x="0" y="0" width="640" height="480" fill="#FFFFFF"/>
<rect x="60" y="20" width="564" height="412" fill="#FFFFFF"/>
<line x1="85.64" y1="20" x2="85.64" y2="432" stroke="#E4E4E8" stroke-width="1"/>
<line x1="188.18" y1="20" x2="188.18" y2="432" stroke="#E4E4E8" stroke-width="1"/>
<line x1="290.73" y1="20" x2="290.73" y2="432" stroke="#E4E4E8" stroke-width="1"/>
<line x1="393.27" y1="20" x2="393.27" y2="432" stroke="#E4E4E8" stroke-width="1"/>
<line x1="495.82" y1="20" x2="495.82" y2="432" stroke="#E4E4E8" stroke-width="1"/>
<line x1="598.36" y1="20" x2="598.36" y2="432" stroke="#E4E4E8" stroke-width="1"/>
<line x1="60" y1="413.27" x2="624" y2="413.27" stroke="#E4E4E8" stroke-width="1"/>
<line x1="60" y1="338.36" x2="624" y2="338.36" stroke="#E4E4E8" stroke-width="1"/>
<line x1="60" y1="263.45" x2="624" y2="263.45" stroke="#E4E4E8" stroke-width="1"/>
<line x1="60" y1="188.55" x2="624" y2="188.55" stroke="#E4E4E8" stroke-width="1"/>
<line x1="60" y1="113.64" x2="624" y2="113.64" stroke="#E4E4E8" stroke-width="1"/>
<line x1="60" y1="38.73" x2="624" y2="38.73" stroke="#E4E4E8" stroke-width="1"/>
<clipPath id="panel1"><rect x="60" y="20" width="564" height="412"/></clipPath>
<g clip-path="url(#panel1)">
<polyline points="60,432 624,20" fill="none" stroke="#9A9AA6" stroke-width="1" stroke-opacity="1" stroke-linejoin="round" stroke-linecap="round" stroke-dasharray="4,3"/>
<polyline points="85.64,413.27 87.69,410.18 89.74,407.08 91.79,403.99 93.84,400.89 95.89,397.8 97.94,394.7 99.99,391.6 102.04,388.51 104.09,385.41 106.15,382.32 108.2,379.22 110.25,376.13 112.3,373.03 114.35,369.94 116.4,366.84 118.45,363.75 120.5,360.65 122.55,357.56 124.6,354.46 126.65,351.36 128.71,348.27 130.76,345.17 132.81,342.08 134.86,338.98 136.91,335.89 138.96,332.79 141.01,329.7 143.06,326.6 145.11,323.51 147.16,320.41 149.21,317.31 151.27,314.22 153.32,314.22 155.37,311.12 157.42,308.03 159.47,304.93 161.52,301.84 163.57,298.74 165.62,295.65 167.67,295.65 169.72,292.55 171.77,289.46 173.83,286.36 175.88,286.36 177.93,283.27 179.98,280.17 182.03,277.07 184.08,273.98 186.13,270.88 188.18,267.79 190.23,264.69 192.28,261.6 194.33,258.5 196.39,255.41 198.44,255.41 200.49,255.41 202.54,252.31 204.59,249.22 206.64,249.22 208.69,246.12 210.74,246.12 212.79,243.02 214.84,239.93 216.89,236.83 218.95,233.74 221,230.64 223.05,230.64 225.1,230.64 227.15,227.55 229.2,227.55 231.25,224.45 233.3,221.36 235.35,218.26 237.4,218.26 239.45,218.26 241.51,215.17 243.56,215.17 245.61,215.17 247.66,215.17 249.71,212.07 251.76,208.98 253.81,205.88 255.86,202.78 257.91,202.78 259.96,199.69 262.01,196.59 264.07,193.5 266.12,193.5 268.17,193.5 270.22,190.4 272.27,187.31 274.32,184.21 276.37,181.12 278.42,178.02 280.47,174.93 282.52,171.83 284.57,168.73 286.63,168.73 288.68,165.64 290.73,162.54 292.78,159.45 294.83,159.45 296.88,159.45 298.93,159.45 300.98,159.45 303.03,159.45 305.08,156.35 307.13,156.35 309.19,153.26 311.24,153.26 313.29,153.26 315.34,150.16 317.39,150.16 319.44,147.07 321.49,143.97 323.54,140.88 325.59,137.78 327.64,137.78 329.69,137.78 331.75,134.69 333.8,131.59 335.85,128.49 337.9,125.4 339.95,125.4 342,125.4 344.05,122.3 346.1,122.3 348.15,119.21 350.2,119.21 352.25,119.21 354.31,116.11 356.36,113.02 358.41,113.02 360.46,113.02 362.51,109.92 364.56,109.92 366.61,109.92 368.66,106.83 370.71,106.83 372.76,106.83 374.81,103.73 376.87,100.64 378.92,97.54 380.97,97.54 383.02,94.44 385.07,94.44 387.12,94.44 389.17,94.44 391.22,91.35 393.27,91.35 395.32,91.35 397.37,91.35 399.43,88.25 401.48,85.16 403.53,82.06 405.58,82.06 407.63,78.97 409.68,78.97 411.73,78.97 413.78,75.87 415.83,72.78 417.88,72.78 419.93,72.78 421.99,72.78 424.04,69.68 426.09,69.68 428.14,69.68 430.19,69.68 432.24,69.68 434.29,69.68 436.34,69.68 438.39,69.68 440.44,66.59 442.49,66.59 444.55,66.59 446.6,63.49 448.65,63.49 450.7,63.49 452.75,63.49 454.8,63.49 456.85,63.49 458.9,63.49 460.95,63.49 463,63.49 465.05,63.49 467.11,60.4 469.16,60.4 471.21,60.4 473.26,57.3 475.31,54.2 477.36,54.2 479.41,54.2 481.46,54.2 483.51,54.2 485.56,54.2 487.61,54.2 489.67,51.11 491.72,48.01 493.77,48.01 495.82,48.01 497.87,48.01 499.92,48.01 501.97,48.01 504.02,48.01 506.07,48.01 508.12,48.01 510.17,48.01 512.23,48.01 514.28,48.01 516.33,48.01 518.38,48.01 520.43,48.01 522.48,48.01 524.53,48.01 526.58,44.92 528.63,44.92 530.68,44.92 532.73,44.92 534.79,44.92 536.84,44.92 538.89,44.92 540.94,44.92 542.99,44.92 545.04,44.92 547.09,44.92 549.14,44.92 551.19,44.92 553.24,44.92 555.29,41.82 557.35,41.82 559.4,41.82 561.45,41.82 563.5,38.73 565.55,38.73 567.6,38.73 569.65,38.73 571.7,38.73 573.75,38.73 575.8,38.73 577.85,38.73 579.91,38.73 581.96,38.73 584.01,38.73 586.06,38.73 588.11,38.73 590.16,38.73 592.21,38.73 594.26,38.73 596.31,38.73 598.36,38.73" fill="none" stroke="#12A594" stroke-width="2" stroke-opacity="1" stroke-linejoin="round" stroke-linecap="round"/>
</g>
<text x="85.64" y="448" text-anchor="middle" font-size="11" fill="#3A3A3A">0</text>
<text x="188.18" y="448" text-anchor="middle" font-size="11" fill="#3A3A3A">0.2</text>
<text x="290.73" y="448" text-anchor="middle" font-size="11" fill="#3A3A3A">0.4</text>
<text x="393.27" y="448" text-anchor="middle" font-size="11" fill="#3A3A3A">0.6</text>
<text x="495.82" y="448" text-anchor="middle" font-size="11" fill="#3A3A3A">0.8</text>
<text x="598.36" y="448" text-anchor="middle" font-size="11" fill="#3A3A3A">1</text>
<text x="52" y="417.12" text-anchor="end" font-size="11" fill="#3A3A3A">0</text>
<text x="52" y="342.21" text-anchor="end" font-size="11" fill="#3A3A3A">0.2</text>
<text x="52" y="267.3" text-anchor="end" font-size="11" fill="#3A3A3A">0.4</text>
<text x="52" y="192.4" text-anchor="end" font-size="11" fill="#3A3A3A">0.6</text>
<text x="52" y="117.49" text-anchor="end" font-size="11" fill="#3A3A3A">0.8</text>
<text x="52" y="42.58" text-anchor="end" font-size="11" fill="#3A3A3A">1</text>
<text x="342" y="470" text-anchor="middle" font-size="13" fill="#3A3A3A">proportion targeted</text>
<text x="15" y="226" transform="rotate(-90 15 226)" text-anchor="middle" font-size="13" fill="#3A3A3A">proportion of positives</text>
</svg>
