<svg xmlns="http://www.w3.org/2000/svg" width="640" height="480" viewBox="0 0 640 480" font-family="Helvetica, Arial, sans-serif">
<rect x="0" y="0" width="640" height="480" fill="#FFFFFF"/>
<rect x="60" y="20" width="475" height="412" fill="#FFFFFF"/>
<line x1="130" y1="20" x2="130" y2="432" stroke="#E4E4E8" stroke-width="1"/>
<line x1="301.09" y1="20" x2="301.09" y2="432" stroke="#E4E4E8" stroke-width="1"/>
<line x1="472.18" y1="20" x2="472.18" y2="432" stroke="#E4E4E8" stroke-width="1"/>
<line x1="60" y1="354.75" x2="535" y2="354.75" stroke="#E4E4E8" stroke-width="1"/>
<line x1="60" y1="226" x2="535" y2="226" stroke="#E4E4E8" stroke-width="1"/>
<line x1="60" y1="97.25" x2="535" y2="97.25" stroke="#E4E4E8" stroke-width="1"/>
<clipPath id="panel1"><rect x="60" y="20" width="475" height="412"/></clipPath>
<g clip-path="url(#panel1)">
<circle cx="360.87" cy="354.75" r="2.5" fill="#2E5D6F" fill-opacity="0.7"/>
<circle cx="416.31" cy="354.75" r="2.5" fill="#418A84" fill-opacity="0.7"/>
<circle cx="346.56" cy="354.75" r="2.5" fill="#59C29E" fill-opacity="0.7"/>
<circle cx="512.92" cy="354.75" r="2.5" fill="#224162" fill-opacity="0.7"/>
<circle cx="426.3" cy="354.75" r="2.5" fill="#366F77" fill-opacity="0.7"/>
<circle cx="347.6" cy="324.71" r="2.5" fill="#274D67" fill-opacity="0.7"/>
<circle cx="437.1" cy="354.75" r="2.5" fill="#377178" fill-opacity="0.7"/>
<circle cx="454.27" cy="354.75" r="2.5" fill="#214061" fill-opacity="0.7"/>
<circle cx="443.15" cy="354.75" r="2.5" fill="#39767B" fill-opacity="0.7"/>
<circle cx="382.85" cy="354.75" r="2.5" fill="#5BC7A1" fill-opacity="0.7"/>
<circle cx="507.21" cy="354.75" r="2.5" fill="#4EA993" fill-opacity="0.7"/>
<circle cx="430.43" cy="354.75" r="2.5" fill="#5AC5A0" fill-opacity="0.7"/>
<circle cx="361.23" cy="324.71" r="2.5" fill="#3A787C" fill-opacity="0.7"/>
<circle cx="252.18" cy="354.75" r="2.5" fill="#438E86" fill-opacity="0.7"/>
<circle cx="480.73" cy="354.75" r="2.5" fill="#3B7A7D" fill-opacity="0.7"/>
<circle cx="400.67" cy="354.75" r="2.5" fill="#203C5F" fill-opacity="0.7"/>
<circle cx="402.64" cy="354.75" r="2.5" fill="#2A536A" fill-opacity="0.7"/>
<circle cx="468.34" cy="354.75" r="2.5" fill="#3C7D7E" fill-opacity="0.7"/>
<circle cx="459.95" cy="336.73" r="2.5" fill="#336874" fill-opacity="0.7"/>
<circle cx="444.39" cy="332.22" r="2.5" fill="#5BC6A0" fill-opacity="0.7"/>
<circle cx="466.64" cy="354.75" r="2.5" fill="#3D8180" fill-opacity="0.7"/>
<circle cx="457.27" cy="372.77" r="2.5" fill="#2F5E70" fill-opacity="0.7"/>
<circle cx="408.85" cy="354.75" r="2.5" fill="#2C586D" fill-opacity="0.7"/>
<circle cx="267.6" cy="354.75" r="2.5" fill="#50AD95" fill-opacity="0.7"/>
<circle cx="446.16" cy="377.28" r="2.5" fill="#4A9F8E" fill-opacity="0.7"/>
<circle cx="399.91" cy="339.73" r="2.5" fill="#244564" fill-opacity="0.7"/>
<circle cx="393.08" cy="354.75" r="2.5" fill="#1D345C" fill-opacity="0.7"/>
<circle cx="303.09" cy="354.75" r="2.5" fill="#4EA892" fill-opacity="0.7"/>
<circle cx="371.02" cy="354.75" r="2.5" fill="#449188" fill-opacity="0.7"/>
<circle cx="432.35" cy="332.22" r="2.5" fill="#244664" fill-opacity="0.7"/>
<circle cx="496.73" cy="354.75" r="2.5" fill="#1C345C" fill-opacity="0.7"/>
<circle cx="396.71" cy="369.77" r="2.5" fill="#203C5F" fill-opacity="0.7"/>
<circle cx="430.28" cy="377.28" r="2.5" fill="#336975" fill-opacity="0.7"/>
<circle cx="400.06" cy="324.71" r="2.5" fill="#244664" fill-opacity="0.7"/>
<circle cx="309.51" cy="354.75" r="2.5" fill="#2D5B6E" fill-opacity="0.7"/>
<circle cx="375.35" cy="324.71" r="2.5" fill="#264A66" fill-opacity="0.7"/>
<circle cx="376.76" cy="354.75" r="2.5" fill="#2A546B" fill-opacity="0.7"/>
<circle cx="399.69" cy="384.79" r="2.5" fill="#254865" fill-opacity="0.7"/>
<circle cx="479.03" cy="354.75" r="2.5" fill="#3A797C" fill-opacity="0.7"/>
<circle cx="455.97" cy="318.7" r="2.5" fill="#4FAA93" fill-opacity="0.7"/>
<circle cx="249.99" cy="226" r="2.5" fill="#1A2E59" fill-opacity="0.7"/>
<circle cx="240.87" cy="226" r="2.5" fill="#3E8280" fill-opacity="0.7"/>
<circle cx="338.42" cy="226" r="2.5" fill="#57BD9C" fill-opacity="0.7"/>
<circle cx="324.02" cy="226" r="2.5" fill="#336874" fill-opacity="0.7"/>
<circle cx="196.17" cy="226" r="2.5" fill="#1B315B" fill-opacity="0.7"/>
<circle cx="194.25" cy="207.97" r="2.5" fill="#224162" fill-opacity="0.7"/>
<circle cx="304.3" cy="226" r="2.5" fill="#2F5F70" fill-opacity="0.7"/>
<circle cx="345.77" cy="226" r="2.5" fill="#234363" fill-opacity="0.7"/>
<circle cx="255.34" cy="226" r="2.5" fill="#213F61" fill-opacity="0.7"/>
<circle cx="357.32" cy="226" r="2.5" fill="#284E68" fill-opacity="0.7"/>
<circle cx="307.74" cy="203.47" r="2.5" fill="#284F69" fill-opacity="0.7"/>
<circle cx="204.05" cy="226" r="2.5" fill="#213F61" fill-opacity="0.7"/>
<circle cx="301.89" cy="248.53" r="2.5" fill="#5ECEA4" fill-opacity="0.7"/>
<circle cx="150.94" cy="226" r="2.5" fill="#2F6070" fill-opacity="0.7"/>
<circle cx="413.98" cy="226" r="2.5" fill="#3C7E7F" fill-opacity="0.7"/>
<circle cx="470.17" cy="226" r="2.5" fill="#499B8C" fill-opacity="0.7"/>
<circle cx="229.18" cy="226" r="2.5" fill="#1F3A5F" fill-opacity="0.7"/>
<circle cx="159.69" cy="226" r="2.5" fill="#203D60" fill-opacity="0.7"/>
<circle cx="325.36" cy="203.47" r="2.5" fill="#1C325B" fill-opacity="0.7"/>
<circle cx="253.01" cy="195.96" r="2.5" fill="#5AC5A0" fill-opacity="0.7"/>
<circle cx="513.41" cy="226" r="2.5" fill="#489A8C" fill-opacity="0.7"/>
<circle cx="262.85" cy="195.96" r="2.5" fill="#1F395E" fill-opacity="0.7"/>
<circle cx="337.68" cy="195.96" r="2.5" fill="#3B7C7D" fill-opacity="0.7"/>
<circle cx="269.75" cy="226" r="2.5" fill="#39777B" fill-opacity="0.7"/>
<circle cx="190.58" cy="244.02" r="2.5" fill="#336874" fill-opacity="0.7"/>
<circle cx="286.26" cy="226" r="2.5" fill="#5FCFA5" fill-opacity="0.7"/>
<circle cx="81.59" cy="226" r="2.5" fill="#254765" fill-opacity="0.7"/>
<circle cx="417.32" cy="226" r="2.5" fill="#52B197" fill-opacity="0.7"/>
<circle cx="282.61" cy="195.96" r="2.5" fill="#1D355C" fill-opacity="0.7"/>
<circle cx="489.9" cy="226" r="2.5" fill="#356C76" fill-opacity="0.7"/>
<circle cx="315.69" cy="226" r="2.5" fill="#224162" fill-opacity="0.7"/>
<circle cx="194" cy="189.95" r="2.5" fill="#264A66" fill-opacity="0.7"/>
<circle cx="329.57" cy="248.53" r="2.5" fill="#54B699" fill-opacity="0.7"/>
<circle cx="170.99" cy="226" r="2.5" fill="#4BA28F" fill-opacity="0.7"/>
<circle cx="138.19" cy="226" r="2.5" fill="#2B566C" fill-opacity="0.7"/>
<circle cx="296.79" cy="226" r="2.5" fill="#3B7C7E" fill-opacity="0.7"/>
<circle cx="221.37" cy="226" r="2.5" fill="#1E375D" fill-opacity="0.7"/>
<circle cx="266.99" cy="203.47" r="2.5" fill="#316573" fill-opacity="0.7"/>
<circle cx="274.51" cy="248.53" r="2.5" fill="#5DCCA3" fill-opacity="0.7"/>
<circle cx="206.36" cy="195.96" r="2.5" fill="#459288" fill-opacity="0.7"/>
<circle cx="271.91" cy="97.25" r="2.5" fill="#47998B" fill-opacity="0.7"/>
<circle cx="294.15" cy="97.25" r="2.5" fill="#2E5E6F" fill-opacity="0.7"/>
<circle cx="361.56" cy="97.25" r="2.5" fill="#356D77" fill-opacity="0.7"/>
<circle cx="222.89" cy="97.25" r="2.5" fill="#5FD0A5" fill-opacity="0.7"/>
<circle cx="331.58" cy="97.25" r="2.5" fill="#55B89A" fill-opacity="0.7"/>
<circle cx="318.18" cy="97.25" r="2.5" fill="#5CC9A2" fill-opacity="0.7"/>
<circle cx="355.66" cy="97.25" r="2.5" fill="#52B197" fill-opacity="0.7"/>
<circle cx="285.48" cy="97.25" r="2.5" fill="#50AC94" fill-opacity="0.7"/>
<circle cx="320.09" cy="97.25" r="2.5" fill="#2B566C" fill-opacity="0.7"/>
<circle cx="314.8" cy="97.25" r="2.5" fill="#4EA993" fill-opacity="0.7"/>
<circle cx="273.25" cy="74.72" r="2.5" fill="#5ECEA4" fill-opacity="0.7"/>
<circle cx="363.09" cy="97.25" r="2.5" fill="#2D5A6E" fill-opacity="0.7"/>
<circle cx="360.65" cy="67.21" r="2.5" fill="#346C76" fill-opacity="0.7"/>
<circle cx="337.03" cy="97.25" r="2.5" fill="#52B197" fill-opacity="0.7"/>
<circle cx="382.54" cy="97.25" r="2.5" fill="#1E365D" fill-opacity="0.7"/>
<circle cx="329.76" cy="67.21" r="2.5" fill="#326673" fill-opacity="0.7"/>
<circle cx="235.57" cy="97.25" r="2.5" fill="#38737A" fill-opacity="0.7"/>
<circle cx="271.67" cy="119.78" r="2.5" fill="#234463" fill-opacity="0.7"/>
<circle cx="238.24" cy="67.21" r="2.5" fill="#428B85" fill-opacity="0.7"/>
<circle cx="276.8" cy="97.25" r="2.5" fill="#5DCCA3" fill-opacity="0.7"/>
<circle cx="269.25" cy="97.25" r="2.5" fill="#5FCFA4" fill-opacity="0.7"/>
<circle cx="303.25" cy="97.25" r="2.5" fill="#254765" fill-opacity="0.7"/>
<circle cx="254.34" cy="97.25" r="2.5" fill="#3F8481" fill-opacity="0.7"/>
<circle cx="309.2" cy="97.25" r="2.5" fill="#336A75" fill-opacity="0.7"/>
<circle cx="267.5" cy="79.22" r="2.5" fill="#489A8C" fill-opacity="0.7"/>
<circle cx="391.8" cy="97.25" r="2.5" fill="#2B566C" fill-opacity="0.7"/>
<circle cx="337.88" cy="67.21" r="2.5" fill="#39787C" fill-opacity="0.7"/>
<circle cx="347.81" cy="97.25" r="2.5" fill="#244664" fill-opacity="0.7"/>
<circle cx="320.81" cy="67.21" r="2.5" fill="#326774" fill-opacity="0.7"/>
<circle cx="387.43" cy="97.25" r="2.5" fill="#4CA390" fill-opacity="0.7"/>
<circle cx="268.46" cy="115.28" r="2.5" fill="#3B7B7D" fill-opacity="0.7"/>
<circle cx="277.4" cy="67.21" r="2.5" fill="#1D345C" fill-opacity="0.7"/>
<circle cx="374.61" cy="97.25" r="2.5" fill="#50AD94" fill-opacity="0.7"/>
<circle cx="267.7" cy="61.2" r="2.5" fill="#366F78" fill-opacity="0.7"/>
<circle cx="290.45" cy="97.25" r="2.5" fill="#5ECDA4" fill-opacity="0.7"/>
<circle cx="280.93" cy="97.25" r="2.5" fill="#2C596D" fill-opacity="0.7"/>
<circle cx="284.67" cy="67.21" r="2.5" fill="#54B799" fill-opacity="0.7"/>
<circle cx="286.77" cy="67.21" r="2.5" fill="#1E375D" fill-opacity="0.7"/>
<circle cx="326.46" cy="97.25" r="2.5" fill="#57BE9C" fill-opacity="0.7"/>
<circle cx="291.99" cy="67.21" r="2.5" fill="#3A787C" fill-opacity="0.7"/>
<polyline points="301.09,432 301.09,20" fill="none" stroke="#8A8A94" stroke-width="1" stroke-opacity="1" stroke-linejoin="round" stroke-linecap="round" stroke-dasharray="3,3"/>
</g>
<text x="130" y="448" text-anchor="middle" font-size="11" fill="#3A3A3A">-0.5</text>
<text x="301.09" y="448" text-anchor="middle" font-size="11" fill="#3A3A3A">0</text>
<text x="472.18" y="448" text-anchor="middle" font-size="11" fill="#3A3A3A">0.5</text>
<text x="52" y="358.6" text-anchor="end" font-size="11" fill="#3A3A3A">age</text>
<text x="52" y="229.85" text-anchor="end" font-size="11" fill="#3A3A3A">income</text>
<text x="52" y="101.1" text-anchor="end" font-size="11" fill="#3A3A3A">tenure</text>
<text x="297.5" y="470" text-anchor="middle" font-size="13" fill="#3A3A3A">SHAP value</text>
<text x="15" y="226" transform="rotate(-90 15 226)" text-anchor="middle" font-size="13" fill="#3A3A3A">feature</text>
<text x="549" y="28" text-anchor="start" font-size="13" fill="#3A3A3A">value</text>
<defs><linearGradient id="ggplot3-grad" x1="0" y1="1" x2="0" y2="0"><stop offset="0" stop-color="#1A2E59"/><stop offset="1" stop-color="#5FD0A5"/></linearGradient></defs>
<rect x="549" y="38" width="14" height="120" fill="url(#ggplot3-grad)"/>
<text x="569" y="161.85" text-anchor="start" font-size="11" fill="#3A3A3A">0.02778712</text>
<text x="569" y="131.85" text-anchor="start" font-size="11" fill="#3A3A3A">0.26985968</text>
<text x="569" y="101.85" text-anchor="start" font-size="11" fill="#3A3A3A">0.51193225</text>
<text x="569" y="71.85" text-anchor="start" font-size="11" fill="#3A3A3A">0.75400481</text>
<text x="569" y="41.85" text-anchor="start" font-size="11" fill="#3A3A3A">0.99607737</text>
</svg>
