<svg xmlns="http://www.w3.org/2000/svg" width="640" height="480" viewBox="0 0 640 480" font-family="Helvetica, Arial, sans-serif">
<rect x="0" y="0" width="640" height="480" fill="#FFFFFF"/>
<rect x="60" y="20" width="564" height="412" fill="#FFFFFF"/>
<line x1="149.73" y1="20" x2="149.73" y2="432" stroke="#E4E4E8" stroke-width="1"/>
<line x1="309.95" y1="20" x2="309.95" y2="432" stroke="#E4E4E8" stroke-width="1"/>
<line x1="470.18" y1="20" x2="470.18" y2="432" stroke="#E4E4E8" stroke-width="1"/>
<line x1="60" y1="384.46" x2="624" y2="384.46" stroke="#E4E4E8" stroke-width="1"/>
<line x1="60" y1="305.23" x2="624" y2="305.23" stroke="#E4E4E8" stroke-width="1"/>
<line x1="60" y1="226" x2="624" y2="226" stroke="#E4E4E8" stroke-width="1"/>
<line x1="60" y1="146.77" x2="624" y2="146.77" stroke="#E4E4E8" stroke-width="1"/>
<line x1="60" y1="67.54" x2="624" y2="67.54" stroke="#E4E4E8" stroke-width="1"/>
<clipPath id="panel1"><rect x="60" y="20" width="564" height="412"/></clipPath>
<g clip-path="url(#panel1)">
<polyline points="470.18,432 470.18,20" fill="none" stroke="#9A9AA6" stroke-width="1" stroke-opacity="1" stroke-linejoin="round" stroke-linecap="round" stroke-dasharray="4,3"/>
<polyline points="189.78,305.23 494.22,305.23" fill="none" stroke="#2A3F5F" stroke-width="1.5" stroke-opacity="1" stroke-linejoin="round" stroke-linecap="round"/>
<polyline points="189.78,310.17 189.78,300.29" fill="none" stroke="#2A3F5F" stroke-width="1.5" stroke-opacity="1" stroke-linejoin="round" stroke-linecap="round"/>
<polyline points="494.22,310.17 494.22,300.29" fill="none" stroke="#2A3F5F" stroke-width="1.5" stroke-opacity="1" stroke-linejoin="round" stroke-linecap="round"/>
<rect x="322.48" y="300.12" width="7" height="10.23" fill="#2A3F5F" fill-opacity="1"/>
<polyline points="85.64,226 446.15,226" fill="none" stroke="#2A3F5F" stroke-width="1.5" stroke-opacity="1" stroke-linejoin="round" stroke-linecap="round"/>
<polyline points="85.64,230.94 85.64,221.06" fill="none" stroke="#2A3F5F" stroke-width="1.5" stroke-opacity="1" stroke-linejoin="round" stroke-linecap="round"/>
<polyline points="446.15,230.94 446.15,221.06" fill="none" stroke="#2A3F5F" stroke-width="1.5" stroke-opacity="1" stroke-linejoin="round" stroke-linecap="round"/>
<rect x="235.3" y="222.27" width="5.11" height="7.46" fill="#2A3F5F" fill-opacity="1"/>
<polyline points="293.93,146.77 598.36,146.77" fill="none" stroke="#2A3F5F" stroke-width="1.5" stroke-opacity="1" stroke-linejoin="round" stroke-linecap="round"/>
<polyline points="293.93,151.71 293.93,141.83" fill="none" stroke="#2A3F5F" stroke-width="1.5" stroke-opacity="1" stroke-linejoin="round" stroke-linecap="round"/>
<polyline points="598.36,151.71 598.36,141.83" fill="none" stroke="#2A3F5F" stroke-width="1.5" stroke-opacity="1" stroke-linejoin="round" stroke-linecap="round"/>
<rect x="426.84" y="141.96" width="6.58" height="9.61" fill="#2A3F5F" fill-opacity="1"/>
<polyline points="229.84,67.54 550.3,67.54" fill="none" stroke="#2A3F5F" stroke-width="1.5" stroke-opacity="1" stroke-linejoin="round" stroke-linecap="round"/>
<polyline points="229.84,72.48 229.84,62.59" fill="none" stroke="#2A3F5F" stroke-width="1.5" stroke-opacity="1" stroke-linejoin="round" stroke-linecap="round"/>
<polyline points="550.3,72.48 550.3,62.59" fill="none" stroke="#2A3F5F" stroke-width="1.5" stroke-opacity="1" stroke-linejoin="round" stroke-linecap="round"/>
<rect x="371.79" y="64.24" width="4.51" height="6.59" fill="#2A3F5F" fill-opacity="1"/>
<polyline points="261.89,384.46 414.1,384.46" fill="none" stroke="#2A3F5F" stroke-width="1.5" stroke-opacity="1" stroke-linejoin="round" stroke-linecap="round"/>
<polyline points="261.89,389.41 261.89,379.52" fill="none" stroke="#2A3F5F" stroke-width="1.5" stroke-opacity="1" stroke-linejoin="round" stroke-linecap="round"/>
<polyline points="414.1,389.41 414.1,379.52" fill="none" stroke="#2A3F5F" stroke-width="1.5" stroke-opacity="1" stroke-linejoin="round" stroke-linecap="round"/>
<rect x="326.09" y="372.93" width="15.79" height="23.07" fill="#2A3F5F" fill-opacity="1"/>
</g>
<text x="149.73" y="448" text-anchor="middle" font-size="11" fill="#3A3A3A">0.6</text>
<text x="309.95" y="448" text-anchor="middle" font-size="11" fill="#3A3A3A">0.8</text>
<text x="470.18" y="448" text-anchor="middle" font-size="11" fill="#3A3A3A">1</text>
<text x="52" y="388.31" text-anchor="end" font-size="11" fill="#3A3A3A">Pooled</text>
<text x="52" y="309.08" text-anchor="end" font-size="11" fill="#3A3A3A">Trial A</text>
<text x="52" y="229.85" text-anchor="end" font-size="11" fill="#3A3A3A">Trial B</text>
<text x="52" y="150.62" text-anchor="end" font-size="11" fill="#3A3A3A">Trial C</text>
<text x="52" y="71.39" text-anchor="end" font-size="11" fill="#3A3A3A">Trial D</text>
<text x="342" y="470" text-anchor="middle" font-size="13" fill="#3A3A3A">Hazard ratio (95% CI)</text>
<text x="15" y="226" transform="rotate(-90 15 226)" text-anchor="middle" font-size="13" fill="#3A3A3A">study</text>
</svg>
