<svg xmlns="http://www.w3.org/2000/svg" width="640" height="480" viewBox="0 0 640 480" font-family="Helvetica, Arial, sans-serif">
<rect x="0" y="0" width="640" height="480" fill="#FFFFFF"/>
<text x="10" y="25" text-anchor="start" font-family="Helvetica, Arial, sans-serif" font-size="17" font-weight="bold" fill="#1A1A22">Stopping distance rises with speed</text>
<rect x="60" y="47" width="564" height="385" fill="#F4F4F6"/>
<line x1="110.05" y1="47" x2="110.05" y2="432" stroke="#FFFFFF" stroke-width="1"/>
<line x1="232.13" y1="47" x2="232.13" y2="432" stroke="#FFFFFF" stroke-width="1"/>
<line x1="354.21" y1="47" x2="354.21" y2="432" stroke="#FFFFFF" stroke-width="1"/>
<line x1="476.29" y1="47" x2="476.29" y2="432" stroke="#FFFFFF" stroke-width="1"/>
<line x1="598.36" y1="47" x2="598.36" y2="432" stroke="#FFFFFF" stroke-width="1"/>
<line x1="60" y1="420.43" x2="624" y2="420.43" stroke="#FFFFFF" stroke-width="1"/>
<line x1="60" y1="361.11" x2="624" y2="361.11" stroke="#FFFFFF" stroke-width="1"/>
<line x1="60" y1="301.79" x2="624" y2="301.79" stroke="#FFFFFF" stroke-width="1"/>
<line x1="60" y1="242.47" x2="624" y2="242.47" stroke="#FFFFFF" stroke-width="1"/>
<line x1="60" y1="183.14" x2="624" y2="183.14" stroke="#FFFFFF" stroke-width="1"/>
<line x1="60" y1="123.82" x2="624" y2="123.82" stroke="#FFFFFF" stroke-width="1"/>
<line x1="60" y1="64.5" x2="624" y2="64.5" stroke="#FFFFFF" stroke-width="1"/>
<clipPath id="panel1"><rect x="60" y="47" width="564" height="385"/></clipPath>
<g clip-path="url(#panel1)">
<circle cx="85.64" cy="414.5" r="3" fill="#000000" fill-opacity="1"/>
<circle cx="85.64" cy="390.77" r="3" fill="#000000" fill-opacity="1"/>
<circle cx="158.88" cy="408.57" r="3" fill="#000000" fill-opacity="1"/>
<circle cx="158.88" cy="355.18" r="3" fill="#000000" fill-opacity="1"/>
<circle cx="183.3" cy="372.97" r="3" fill="#000000" fill-opacity="1"/>
<circle cx="207.71" cy="390.77" r="3" fill="#000000" fill-opacity="1"/>
<circle cx="232.13" cy="367.04" r="3" fill="#000000" fill-opacity="1"/>
<circle cx="232.13" cy="343.31" r="3" fill="#000000" fill-opacity="1"/>
<circle cx="232.13" cy="319.58" r="3" fill="#000000" fill-opacity="1"/>
<circle cx="256.55" cy="370.01" r="3" fill="#000000" fill-opacity="1"/>
<circle cx="256.55" cy="337.38" r="3" fill="#000000" fill-opacity="1"/>
<circle cx="280.96" cy="378.91" r="3" fill="#000000" fill-opacity="1"/>
<circle cx="280.96" cy="361.11" r="3" fill="#000000" fill-opacity="1"/>
<circle cx="280.96" cy="349.25" r="3" fill="#000000" fill-opacity="1"/>
<circle cx="280.96" cy="337.38" r="3" fill="#000000" fill-opacity="1"/>
<circle cx="305.38" cy="343.31" r="3" fill="#000000" fill-opacity="1"/>
<circle cx="305.38" cy="319.58" r="3" fill="#000000" fill-opacity="1"/>
<circle cx="305.38" cy="319.58" r="3" fill="#000000" fill-opacity="1"/>
<circle cx="305.38" cy="283.99" r="3" fill="#000000" fill-opacity="1"/>
<circle cx="329.79" cy="343.31" r="3" fill="#000000" fill-opacity="1"/>
<circle cx="329.79" cy="313.65" r="3" fill="#000000" fill-opacity="1"/>
<circle cx="329.79" cy="242.47" r="3" fill="#000000" fill-opacity="1"/>
<circle cx="329.79" cy="183.14" r="3" fill="#000000" fill-opacity="1"/>
<circle cx="354.21" cy="361.11" r="3" fill="#000000" fill-opacity="1"/>
<circle cx="354.21" cy="343.31" r="3" fill="#000000" fill-opacity="1"/>
<circle cx="354.21" cy="260.26" r="3" fill="#000000" fill-opacity="1"/>
<circle cx="378.62" cy="325.52" r="3" fill="#000000" fill-opacity="1"/>
<circle cx="378.62" cy="301.79" r="3" fill="#000000" fill-opacity="1"/>
<circle cx="403.04" cy="325.52" r="3" fill="#000000" fill-opacity="1"/>
<circle cx="403.04" cy="301.79" r="3" fill="#000000" fill-opacity="1"/>
<circle cx="403.04" cy="272.13" r="3" fill="#000000" fill-opacity="1"/>
<circle cx="427.45" cy="295.86" r="3" fill="#000000" fill-opacity="1"/>
<circle cx="427.45" cy="254.33" r="3" fill="#000000" fill-opacity="1"/>
<circle cx="427.45" cy="195.01" r="3" fill="#000000" fill-opacity="1"/>
<circle cx="427.45" cy="171.28" r="3" fill="#000000" fill-opacity="1"/>
<circle cx="451.87" cy="313.65" r="3" fill="#000000" fill-opacity="1"/>
<circle cx="451.87" cy="283.99" r="3" fill="#000000" fill-opacity="1"/>
<circle cx="451.87" cy="218.74" r="3" fill="#000000" fill-opacity="1"/>
<circle cx="476.29" cy="325.52" r="3" fill="#000000" fill-opacity="1"/>
<circle cx="476.29" cy="278.06" r="3" fill="#000000" fill-opacity="1"/>
<circle cx="476.29" cy="266.19" r="3" fill="#000000" fill-opacity="1"/>
<circle cx="476.29" cy="254.33" r="3" fill="#000000" fill-opacity="1"/>
<circle cx="476.29" cy="230.6" r="3" fill="#000000" fill-opacity="1"/>
<circle cx="525.12" cy="224.67" r="3" fill="#000000" fill-opacity="1"/>
<circle cx="549.53" cy="260.26" r="3" fill="#000000" fill-opacity="1"/>
<circle cx="573.95" cy="212.81" r="3" fill="#000000" fill-opacity="1"/>
<circle cx="573.95" cy="147.55" r="3" fill="#000000" fill-opacity="1"/>
<circle cx="573.95" cy="144.58" r="3" fill="#000000" fill-opacity="1"/>
<circle cx="573.95" cy="64.5" r="3" fill="#000000" fill-opacity="1"/>
<circle cx="598.36" cy="168.31" r="3" fill="#000000" fill-opacity="1"/>
</g>
<line x1="60" y1="432" x2="624" y2="432" stroke="#3A3A3A" stroke-width="1"/>
<line x1="60" y1="47" x2="60" y2="432" stroke="#3A3A3A" stroke-width="1"/>
<line x1="110.05" y1="432" x2="110.05" y2="437" stroke="#3A3A3A" stroke-width="1"/>
<text x="110.05" y="448" text-anchor="middle" font-size="11" fill="#3A3A3A">5</text>
<line x1="232.13" y1="432" x2="232.13" y2="437" stroke="#3A3A3A" stroke-width="1"/>
<text x="232.13" y="448" text-anchor="middle" font-size="11" fill="#3A3A3A">10</text>
<line x1="354.21" y1="432" x2="354.21" y2="437" stroke="#3A3A3A" stroke-width="1"/>
<text x="354.21" y="448" text-anchor="middle" font-size="11" fill="#3A3A3A">15</text>
<line x1="476.29" y1="432" x2="476.29" y2="437" stroke="#3A3A3A" stroke-width="1"/>
<text x="476.29" y="448" text-anchor="middle" font-size="11" fill="#3A3A3A">20</text>
<line x1="598.36" y1="432" x2="598.36" y2="437" stroke="#3A3A3A" stroke-width="1"/>
<text x="598.36" y="448" text-anchor="middle" font-size="11" fill="#3A3A3A">25</text>
<line x1="55" y1="420.43" x2="60" y2="420.43" stroke="#3A3A3A" stroke-width="1"/>
<text x="52" y="424.28" text-anchor="end" font-size="11" fill="#3A3A3A">0</text>
<line x1="55" y1="361.11" x2="60" y2="361.11" stroke="#3A3A3A" stroke-width="1"/>
<text x="52" y="364.96" text-anchor="end" font-size="11" fill="#3A3A3A">20</text>
<line x1="55" y1="301.79" x2="60" y2="301.79" stroke="#3A3A3A" stroke-width="1"/>
<text x="52" y="305.64" text-anchor="end" font-size="11" fill="#3A3A3A">40</text>
<line x1="55" y1="242.47" x2="60" y2="242.47" stroke="#3A3A3A" stroke-width="1"/>
<text x="52" y="246.32" text-anchor="end" font-size="11" fill="#3A3A3A">60</text>
<line x1="55" y1="183.14" x2="60" y2="183.14" stroke="#3A3A3A" stroke-width="1"/>
<text x="52" y="186.99" text-anchor="end" font-size="11" fill="#3A3A3A">80</text>
<line x1="55" y1="123.82" x2="60" y2="123.82" stroke="#3A3A3A" stroke-width="1"/>
<text x="52" y="127.67" text-anchor="end" font-size="11" fill="#3A3A3A">100</text>
<line x1="55" y1="64.5" x2="60" y2="64.5" stroke="#3A3A3A" stroke-width="1"/>
<text x="52" y="68.35" text-anchor="end" font-size="11" fill="#3A3A3A">120</text>
<text x="342" y="470" text-anchor="middle" font-size="13" fill="#3A3A3A">Speed (mph)</text>
<text x="15" y="239.5" transform="rotate(-90 15 239.5)" text-anchor="middle" font-size="13" fill="#3A3A3A">Distance (ft)</text>
</svg>
