<svg xmlns="http://www.w3.org/2000/svg" width="640" height="480" viewBox="0 0 640 480" font-family="Helvetica, Arial, sans-serif">
<rect x="0" y="0" width="640" height="480" fill="#FFFFFF"/>
<rect x="60" y="20" width="564" height="412" fill="#FFFFFF"/>
<line x1="110.05" y1="20" x2="110.05" y2="432" stroke="#E4E4E8" stroke-width="1"/>
<line x1="232.13" y1="20" x2="232.13" y2="432" stroke="#E4E4E8" stroke-width="1"/>
<line x1="354.21" y1="20" x2="354.21" y2="432" stroke="#E4E4E8" stroke-width="1"/>
<line x1="476.29" y1="20" x2="476.29" y2="432" stroke="#E4E4E8" stroke-width="1"/>
<line x1="598.36" y1="20" x2="598.36" y2="432" stroke="#E4E4E8" stroke-width="1"/>
<line x1="60" y1="419.62" x2="624" y2="419.62" stroke="#E4E4E8" stroke-width="1"/>
<line x1="60" y1="356.14" x2="624" y2="356.14" stroke="#E4E4E8" stroke-width="1"/>
<line x1="60" y1="292.66" x2="624" y2="292.66" stroke="#E4E4E8" stroke-width="1"/>
<line x1="60" y1="229.17" x2="624" y2="229.17" stroke="#E4E4E8" stroke-width="1"/>
<line x1="60" y1="165.69" x2="624" y2="165.69" stroke="#E4E4E8" stroke-width="1"/>
<line x1="60" y1="102.21" x2="624" y2="102.21" stroke="#E4E4E8" stroke-width="1"/>
<line x1="60" y1="38.73" x2="624" y2="38.73" stroke="#E4E4E8" stroke-width="1"/>
<clipPath id="panel1"><rect x="60" y="20" width="564" height="412"/></clipPath>
<g clip-path="url(#panel1)">
<circle cx="85.64" cy="413.27" r="3" fill="#000000" fill-opacity="0.6"/>
<circle cx="85.64" cy="387.88" r="3" fill="#000000" fill-opacity="0.6"/>
<circle cx="158.88" cy="406.92" r="3" fill="#000000" fill-opacity="0.6"/>
<circle cx="158.88" cy="349.79" r="3" fill="#000000" fill-opacity="0.6"/>
<circle cx="183.3" cy="368.84" r="3" fill="#000000" fill-opacity="0.6"/>
<circle cx="207.71" cy="387.88" r="3" fill="#000000" fill-opacity="0.6"/>
<circle cx="232.13" cy="362.49" r="3" fill="#000000" fill-opacity="0.6"/>
<circle cx="232.13" cy="337.09" r="3" fill="#000000" fill-opacity="0.6"/>
<circle cx="232.13" cy="311.7" r="3" fill="#000000" fill-opacity="0.6"/>
<circle cx="256.55" cy="365.66" r="3" fill="#000000" fill-opacity="0.6"/>
<circle cx="256.55" cy="330.75" r="3" fill="#000000" fill-opacity="0.6"/>
<circle cx="280.96" cy="375.18" r="3" fill="#000000" fill-opacity="0.6"/>
<circle cx="280.96" cy="356.14" r="3" fill="#000000" fill-opacity="0.6"/>
<circle cx="280.96" cy="343.44" r="3" fill="#000000" fill-opacity="0.6"/>
<circle cx="280.96" cy="330.75" r="3" fill="#000000" fill-opacity="0.6"/>
<circle cx="305.38" cy="337.09" r="3" fill="#000000" fill-opacity="0.6"/>
<circle cx="305.38" cy="311.7" r="3" fill="#000000" fill-opacity="0.6"/>
<circle cx="305.38" cy="311.7" r="3" fill="#000000" fill-opacity="0.6"/>
<circle cx="305.38" cy="273.61" r="3" fill="#000000" fill-opacity="0.6"/>
<circle cx="329.79" cy="337.09" r="3" fill="#000000" fill-opacity="0.6"/>
<circle cx="329.79" cy="305.35" r="3" fill="#000000" fill-opacity="0.6"/>
<circle cx="329.79" cy="229.17" r="3" fill="#000000" fill-opacity="0.6"/>
<circle cx="329.79" cy="165.69" r="3" fill="#000000" fill-opacity="0.6"/>
<circle cx="354.21" cy="356.14" r="3" fill="#000000" fill-opacity="0.6"/>
<circle cx="354.21" cy="337.09" r="3" fill="#000000" fill-opacity="0.6"/>
<circle cx="354.21" cy="248.22" r="3" fill="#000000" fill-opacity="0.6"/>
<circle cx="378.62" cy="318.05" r="3" fill="#000000" fill-opacity="0.6"/>
<circle cx="378.62" cy="292.66" r="3" fill="#000000" fill-opacity="0.6"/>
<circle cx="403.04" cy="318.05" r="3" fill="#000000" fill-opacity="0.6"/>
<circle cx="403.04" cy="292.66" r="3" fill="#000000" fill-opacity="0.6"/>
<circle cx="403.04" cy="260.92" r="3" fill="#000000" fill-opacity="0.6"/>
<circle cx="427.45" cy="286.31" r="3" fill="#000000" fill-opacity="0.6"/>
<circle cx="427.45" cy="241.87" r="3" fill="#000000" fill-opacity="0.6"/>
<circle cx="427.45" cy="178.39" r="3" fill="#000000" fill-opacity="0.6"/>
<circle cx="427.45" cy="153" r="3" fill="#000000" fill-opacity="0.6"/>
<circle cx="451.87" cy="305.35" r="3" fill="#000000" fill-opacity="0.6"/>
<circle cx="451.87" cy="273.61" r="3" fill="#000000" fill-opacity="0.6"/>
<circle cx="451.87" cy="203.78" r="3" fill="#000000" fill-opacity="0.6"/>
<circle cx="476.29" cy="318.05" r="3" fill="#000000" fill-opacity="0.6"/>
<circle cx="476.29" cy="267.26" r="3" fill="#000000" fill-opacity="0.6"/>
<circle cx="476.29" cy="254.57" r="3" fill="#000000" fill-opacity="0.6"/>
<circle cx="476.29" cy="241.87" r="3" fill="#000000" fill-opacity="0.6"/>
<circle cx="476.29" cy="216.48" r="3" fill="#000000" fill-opacity="0.6"/>
<circle cx="525.12" cy="210.13" r="3" fill="#000000" fill-opacity="0.6"/>
<circle cx="549.53" cy="248.22" r="3" fill="#000000" fill-opacity="0.6"/>
<circle cx="573.95" cy="197.43" r="3" fill="#000000" fill-opacity="0.6"/>
<circle cx="573.95" cy="127.6" r="3" fill="#000000" fill-opacity="0.6"/>
<circle cx="573.95" cy="124.43" r="3" fill="#000000" fill-opacity="0.6"/>
<circle cx="573.95" cy="38.73" r="3" fill="#000000" fill-opacity="0.6"/>
<circle cx="598.36" cy="149.82" r="3" fill="#000000" fill-opacity="0.6"/>
<polyline points="60,283.2 624,283.2" fill="none" stroke="#C1462F" stroke-width="1" stroke-opacity="1" stroke-linejoin="round" stroke-linecap="round" stroke-dasharray="5,4"/>
<polyline points="363.97,432 363.97,20" fill="none" stroke="#C1462F" stroke-width="1" stroke-opacity="1" stroke-linejoin="round" stroke-linecap="round" stroke-dasharray="5,4"/>
</g>
<text x="110.05" y="448" text-anchor="middle" font-size="11" fill="#3A3A3A">5</text>
<text x="232.13" y="448" text-anchor="middle" font-size="11" fill="#3A3A3A">10</text>
<text x="354.21" y="448" text-anchor="middle" font-size="11" fill="#3A3A3A">15</text>
<text x="476.29" y="448" text-anchor="middle" font-size="11" fill="#3A3A3A">20</text>
<text x="598.36" y="448" text-anchor="middle" font-size="11" fill="#3A3A3A">25</text>
<text x="52" y="423.47" text-anchor="end" font-size="11" fill="#3A3A3A">0</text>
<text x="52" y="359.99" text-anchor="end" font-size="11" fill="#3A3A3A">20</text>
<text x="52" y="296.51" text-anchor="end" font-size="11" fill="#3A3A3A">40</text>
<text x="52" y="233.02" text-anchor="end" font-size="11" fill="#3A3A3A">60</text>
<text x="52" y="169.54" text-anchor="end" font-size="11" fill="#3A3A3A">80</text>
<text x="52" y="106.06" text-anchor="end" font-size="11" fill="#3A3A3A">100</text>
<text x="52" y="42.58" text-anchor="end" font-size="11" fill="#3A3A3A">120</text>
<text x="342" y="470" text-anchor="middle" font-size="13" fill="#3A3A3A">speed</text>
<text x="15" y="226" transform="rotate(-90 15 226)" text-anchor="middle" font-size="13" fill="#3A3A3A">dist</text>
</svg>
