<svg xmlns="http://www.w3.org/2000/svg" width="640" height="480" viewBox="0 0 640 480" font-family="Helvetica, Arial, sans-serif">
<rect x="0" y="0" width="640" height="480" fill="#FFFFFF"/>
<rect x="60" y="20" width="564" height="412" fill="#FFFFFF"/>
<line x1="85.64" y1="20" x2="85.64" y2="432" stroke="#E4E4E8" stroke-width="1"/>
<line x1="213.82" y1="20" x2="213.82" y2="432" stroke="#E4E4E8" stroke-width="1"/>
<line x1="342" y1="20" x2="342" y2="432" stroke="#E4E4E8" stroke-width="1"/>
<line x1="470.18" y1="20" x2="470.18" y2="432" stroke="#E4E4E8" stroke-width="1"/>
<line x1="598.36" y1="20" x2="598.36" y2="432" stroke="#E4E4E8" stroke-width="1"/>
<line x1="60" y1="352.21" x2="624" y2="352.21" stroke="#E4E4E8" stroke-width="1"/>
<line x1="60" y1="270.78" x2="624" y2="270.78" stroke="#E4E4E8" stroke-width="1"/>
<line x1="60" y1="189.36" x2="624" y2="189.36" stroke="#E4E4E8" stroke-width="1"/>
<line x1="60" y1="107.94" x2="624" y2="107.94" stroke="#E4E4E8" stroke-width="1"/>
<line x1="60" y1="26.51" x2="624" y2="26.51" stroke="#E4E4E8" stroke-width="1"/>
<clipPath id="panel1"><rect x="60" y="20" width="564" height="412"/></clipPath>
<g clip-path="url(#panel1)">
<polyline points="85.64,409.31 92.13,407.76 98.62,406.11 105.11,404.35 111.6,402.46 118.09,400.46 124.58,398.32 131.07,396.04 137.56,393.62 144.05,391.04 150.54,388.31 157.03,385.41 163.52,382.33 170.01,379.08 176.5,375.64 182.99,372.01 189.48,368.18 195.97,364.15 202.46,359.91 208.95,355.46 215.44,350.8 221.93,345.92 228.42,340.83 234.91,335.52 241.4,329.99 247.89,324.26 254.38,318.32 260.87,312.18 267.36,305.85 273.85,299.34 280.34,292.66 286.83,285.81 293.32,278.82 299.81,271.71 306.3,264.47 312.79,257.15 319.28,249.74 325.77,242.29 332.26,234.79 338.75,227.28 345.25,219.77 351.74,212.29 358.23,204.86 364.72,197.49 371.21,190.22 377.7,183.04 384.19,175.99 390.68,169.07 397.17,162.31 403.66,155.71 410.15,149.29 416.64,143.06 423.13,137.03 429.62,131.19 436.11,125.57 442.6,120.16 449.09,114.96 455.58,109.98 462.07,105.21 468.56,100.66 475.05,96.32 481.54,92.19 488.03,88.26 494.52,84.54 501.01,81.01 507.5,77.66 513.99,74.5 520.48,71.52 526.97,68.71 533.46,66.06 539.95,63.56 546.44,61.21 552.93,59.01 559.42,56.94 565.91,55 572.4,53.18 578.89,51.47 585.38,49.88 591.87,48.38 598.36,46.99" fill="none" stroke="#12A594" stroke-width="2" stroke-opacity="1" stroke-linejoin="round" stroke-linecap="round"/>
<polyline points="337.07,432 337.07,20" fill="none" stroke="#9A9AA6" stroke-width="1" stroke-opacity="1" stroke-linejoin="round" stroke-linecap="round" stroke-dasharray="4,3"/>
<circle cx="85.64" cy="413.27" r="3.5" fill="#12A594" fill-opacity="0.8"/>
<circle cx="85.64" cy="405.13" r="3.5" fill="#12A594" fill-opacity="0.8"/>
<circle cx="85.64" cy="409.2" r="3.5" fill="#12A594" fill-opacity="0.8"/>
<circle cx="213.82" cy="360.35" r="3.5" fill="#12A594" fill-opacity="0.8"/>
<circle cx="213.82" cy="344.06" r="3.5" fill="#12A594" fill-opacity="0.8"/>
<circle cx="213.82" cy="352.21" r="3.5" fill="#12A594" fill-opacity="0.8"/>
<circle cx="342" cy="221.93" r="3.5" fill="#12A594" fill-opacity="0.8"/>
<circle cx="342" cy="238.21" r="3.5" fill="#12A594" fill-opacity="0.8"/>
<circle cx="342" cy="209.72" r="3.5" fill="#12A594" fill-opacity="0.8"/>
<circle cx="470.18" cy="99.79" r="3.5" fill="#12A594" fill-opacity="0.8"/>
<circle cx="470.18" cy="112.01" r="3.5" fill="#12A594" fill-opacity="0.8"/>
<circle cx="470.18" cy="87.58" r="3.5" fill="#12A594" fill-opacity="0.8"/>
<circle cx="598.36" cy="46.87" r="3.5" fill="#12A594" fill-opacity="0.8"/>
<circle cx="598.36" cy="38.73" r="3.5" fill="#12A594" fill-opacity="0.8"/>
<circle cx="598.36" cy="55.01" r="3.5" fill="#12A594" fill-opacity="0.8"/>
</g>
<text x="85.64" y="448" text-anchor="middle" font-size="11" fill="#3A3A3A">0.1</text>
<text x="213.82" y="448" text-anchor="middle" font-size="11" fill="#3A3A3A">1</text>
<text x="342" y="448" text-anchor="middle" font-size="11" fill="#3A3A3A">10</text>
<text x="470.18" y="448" text-anchor="middle" font-size="11" fill="#3A3A3A">100</text>
<text x="598.36" y="448" text-anchor="middle" font-size="11" fill="#3A3A3A">1000</text>
<text x="52" y="356.06" text-anchor="end" font-size="11" fill="#3A3A3A">20</text>
<text x="52" y="274.63" text-anchor="end" font-size="11" fill="#3A3A3A">40</text>
<text x="52" y="193.21" text-anchor="end" font-size="11" fill="#3A3A3A">60</text>
<text x="52" y="111.79" text-anchor="end" font-size="11" fill="#3A3A3A">80</text>
<text x="52" y="30.36" text-anchor="end" font-size="11" fill="#3A3A3A">100</text>
<text x="342" y="470" text-anchor="middle" font-size="13" fill="#3A3A3A">dose</text>
<text x="15" y="226" transform="rotate(-90 15 226)" text-anchor="middle" font-size="13" fill="#3A3A3A">resp</text>
</svg>
