<svg xmlns="http://www.w3.org/2000/svg" width="640" height="480" viewBox="0 0 640 480" font-family="Helvetica, Arial, sans-serif">
<rect x="0" y="0" width="640" height="480" fill="#FFFFFF"/>
<rect x="60" y="20" width="564" height="412" fill="#F4F4F6"/>
<line x1="105.68" y1="20" x2="105.68" y2="432" stroke="#FFFFFF" stroke-width="1"/>
<line x1="216.23" y1="20" x2="216.23" y2="432" stroke="#FFFFFF" stroke-width="1"/>
<line x1="326.78" y1="20" x2="326.78" y2="432" stroke="#FFFFFF" stroke-width="1"/>
<line x1="437.33" y1="20" x2="437.33" y2="432" stroke="#FFFFFF" stroke-width="1"/>
<line x1="547.89" y1="20" x2="547.89" y2="432" stroke="#FFFFFF" stroke-width="1"/>
<line x1="60" y1="354.75" x2="624" y2="354.75" stroke="#FFFFFF" stroke-width="1"/>
<line x1="60" y1="226" x2="624" y2="226" stroke="#FFFFFF" stroke-width="1"/>
<line x1="60" y1="97.25" x2="624" y2="97.25" stroke="#FFFFFF" stroke-width="1"/>
<clipPath id="panel1"><rect x="60" y="20" width="564" height="412"/></clipPath>
<g clip-path="url(#panel1)">
<rect x="105.68" y="402.54" width="492.69" height="3.71" fill="#E69F00" fill-opacity="0.9"/>
<rect x="105.68" y="398.42" width="492.32" height="3.71" fill="#E69F00" fill-opacity="0.9"/>
<rect x="105.68" y="394.3" width="485.03" height="3.71" fill="#E69F00" fill-opacity="0.9"/>
<rect x="105.68" y="390.18" width="473.62" height="3.71" fill="#E69F00" fill-opacity="0.9"/>
<rect x="105.68" y="386.06" width="472.94" height="3.71" fill="#E69F00" fill-opacity="0.9"/>
<rect x="105.68" y="381.94" width="459.71" height="3.71" fill="#E69F00" fill-opacity="0.9"/>
<rect x="105.68" y="377.82" width="454.02" height="3.71" fill="#E69F00" fill-opacity="0.9"/>
<rect x="105.68" y="373.7" width="446.57" height="3.71" fill="#E69F00" fill-opacity="0.9"/>
<rect x="105.68" y="369.58" width="441.39" height="3.71" fill="#E69F00" fill-opacity="0.9"/>
<rect x="105.68" y="365.46" width="439.53" height="3.71" fill="#E69F00" fill-opacity="0.9"/>
<rect x="105.68" y="361.34" width="438.74" height="3.71" fill="#E69F00" fill-opacity="0.9"/>
<rect x="105.68" y="357.22" width="432" height="3.71" fill="#E69F00" fill-opacity="0.9"/>
<rect x="105.68" y="353.1" width="415.37" height="3.71" fill="#E69F00" fill-opacity="0.9"/>
<rect x="105.68" y="348.98" width="406.26" height="3.71" fill="#E69F00" fill-opacity="0.9"/>
<rect x="105.68" y="344.86" width="401.3" height="3.71" fill="#E69F00" fill-opacity="0.9"/>
<rect x="105.68" y="340.74" width="396.33" height="3.71" fill="#E69F00" fill-opacity="0.9"/>
<rect x="105.68" y="336.62" width="383.63" height="3.71" fill="#E69F00" fill-opacity="0.9"/>
<rect x="105.68" y="332.5" width="368.67" height="3.71" fill="#E69F00" fill-opacity="0.9"/>
<rect x="105.68" y="328.38" width="314.89" height="3.71" fill="#E69F00" fill-opacity="0.9"/>
<rect x="105.68" y="324.26" width="307.55" height="3.71" fill="#E69F00" fill-opacity="0.9"/>
<rect x="105.68" y="320.14" width="215.91" height="3.71" fill="#E69F00" fill-opacity="0.9"/>
<rect x="105.68" y="316.02" width="199.02" height="3.71" fill="#E69F00" fill-opacity="0.9"/>
<rect x="105.68" y="311.9" width="197.56" height="3.71" fill="#E69F00" fill-opacity="0.9"/>
<rect x="105.68" y="307.78" width="165.89" height="3.71" fill="#E69F00" fill-opacity="0.9"/>
<rect x="105.68" y="303.66" width="165.86" height="3.71" fill="#E69F00" fill-opacity="0.9"/>
<rect x="105.68" y="273.79" width="368.67" height="3.71" fill="#56B4E9" fill-opacity="0.9"/>
<rect x="105.68" y="269.67" width="356.61" height="3.71" fill="#56B4E9" fill-opacity="0.9"/>
<rect x="105.68" y="265.55" width="348.29" height="3.71" fill="#56B4E9" fill-opacity="0.9"/>
<rect x="105.68" y="261.43" width="337.21" height="3.71" fill="#56B4E9" fill-opacity="0.9"/>
<rect x="105.68" y="257.31" width="331.94" height="3.71" fill="#56B4E9" fill-opacity="0.9"/>
<rect x="105.68" y="253.19" width="331.66" height="3.71" fill="#56B4E9" fill-opacity="0.9"/>
<rect x="105.68" y="249.07" width="318.49" height="3.71" fill="#56B4E9" fill-opacity="0.9"/>
<rect x="105.68" y="244.95" width="311.7" height="3.71" fill="#56B4E9" fill-opacity="0.9"/>
<rect x="105.68" y="240.83" width="303.82" height="3.71" fill="#56B4E9" fill-opacity="0.9"/>
<rect x="105.68" y="236.71" width="278.6" height="3.71" fill="#56B4E9" fill-opacity="0.9"/>
<rect x="105.68" y="232.59" width="259.92" height="3.71" fill="#56B4E9" fill-opacity="0.9"/>
<rect x="105.68" y="228.47" width="244.01" height="3.71" fill="#56B4E9" fill-opacity="0.9"/>
<rect x="105.68" y="224.35" width="236.11" height="3.71" fill="#56B4E9" fill-opacity="0.9"/>
<rect x="105.68" y="220.23" width="221.5" height="3.71" fill="#56B4E9" fill-opacity="0.9"/>
<rect x="105.68" y="216.11" width="221.42" height="3.71" fill="#56B4E9" fill-opacity="0.9"/>
<rect x="105.68" y="211.99" width="211.07" height="3.71" fill="#56B4E9" fill-opacity="0.9"/>
<rect x="105.68" y="207.87" width="191.88" height="3.71" fill="#56B4E9" fill-opacity="0.9"/>
<rect x="105.68" y="203.75" width="190.59" height="3.71" fill="#56B4E9" fill-opacity="0.9"/>
<rect x="105.68" y="199.63" width="186.14" height="3.71" fill="#56B4E9" fill-opacity="0.9"/>
<rect x="105.68" y="195.51" width="143.84" height="3.71" fill="#56B4E9" fill-opacity="0.9"/>
<rect x="105.68" y="191.39" width="129.67" height="3.71" fill="#56B4E9" fill-opacity="0.9"/>
<rect x="105.68" y="187.27" width="125.42" height="3.71" fill="#56B4E9" fill-opacity="0.9"/>
<rect x="105.68" y="183.15" width="125.34" height="3.71" fill="#56B4E9" fill-opacity="0.9"/>
<rect x="105.68" y="179.03" width="120.13" height="3.71" fill="#56B4E9" fill-opacity="0.9"/>
<rect x="105.68" y="174.91" width="93.58" height="3.71" fill="#56B4E9" fill-opacity="0.9"/>
<rect x="105.68" y="145.04" width="329.28" height="3.71" fill="#009E73" fill-opacity="0.9"/>
<rect x="105.68" y="140.92" width="317.9" height="3.71" fill="#009E73" fill-opacity="0.9"/>
<rect x="105.68" y="136.8" width="315.69" height="3.71" fill="#009E73" fill-opacity="0.9"/>
<rect x="105.68" y="132.68" width="287.83" height="3.71" fill="#009E73" fill-opacity="0.9"/>
<rect x="105.68" y="128.56" width="285.08" height="3.71" fill="#009E73" fill-opacity="0.9"/>
<rect x="105.68" y="124.44" width="264.47" height="3.71" fill="#009E73" fill-opacity="0.9"/>
<rect x="105.68" y="120.32" width="261.9" height="3.71" fill="#009E73" fill-opacity="0.9"/>
<rect x="105.68" y="116.2" width="249.37" height="3.71" fill="#009E73" fill-opacity="0.9"/>
<rect x="105.68" y="112.08" width="238.98" height="3.71" fill="#009E73" fill-opacity="0.9"/>
<rect x="105.68" y="107.96" width="220.14" height="3.71" fill="#009E73" fill-opacity="0.9"/>
<rect x="105.68" y="103.84" width="204.14" height="3.71" fill="#009E73" fill-opacity="0.9"/>
<rect x="105.68" y="99.72" width="203.79" height="3.71" fill="#009E73" fill-opacity="0.9"/>
<rect x="105.68" y="95.6" width="177.68" height="3.71" fill="#009E73" fill-opacity="0.9"/>
<rect x="105.68" y="91.48" width="166.74" height="3.71" fill="#009E73" fill-opacity="0.9"/>
<rect x="105.68" y="87.36" width="160.94" height="3.71" fill="#009E73" fill-opacity="0.9"/>
<rect x="105.68" y="83.24" width="141.75" height="3.71" fill="#009E73" fill-opacity="0.9"/>
<rect x="105.68" y="79.12" width="122.67" height="3.71" fill="#009E73" fill-opacity="0.9"/>
<rect x="105.68" y="75" width="107.89" height="3.71" fill="#009E73" fill-opacity="0.9"/>
<rect x="105.68" y="70.88" width="70.37" height="3.71" fill="#009E73" fill-opacity="0.9"/>
<rect x="105.68" y="66.76" width="68.9" height="3.71" fill="#009E73" fill-opacity="0.9"/>
<rect x="105.68" y="62.64" width="26.18" height="3.71" fill="#009E73" fill-opacity="0.9"/>
<rect x="105.68" y="58.52" width="14.19" height="3.71" fill="#009E73" fill-opacity="0.9"/>
<rect x="105.68" y="54.4" width="8.41" height="3.71" fill="#009E73" fill-opacity="0.9"/>
<rect x="105.68" y="50.28" width="1.77" height="3.71" fill="#009E73" fill-opacity="0.9"/>
<rect x="85.64" y="46.16" width="20.04" height="3.71" fill="#009E73" fill-opacity="0.9"/>
</g>
<line x1="60" y1="432" x2="624" y2="432" stroke="#3A3A3A" stroke-width="1"/>
<line x1="60" y1="20" x2="60" y2="432" stroke="#3A3A3A" stroke-width="1"/>
<line x1="105.68" y1="432" x2="105.68" y2="437" stroke="#3A3A3A" stroke-width="1"/>
<text x="105.68" y="448" text-anchor="middle" font-size="11" fill="#3A3A3A">0</text>
<line x1="216.23" y1="432" x2="216.23" y2="437" stroke="#3A3A3A" stroke-width="1"/>
<text x="216.23" y="448" text-anchor="middle" font-size="11" fill="#3A3A3A">0.2</text>
<line x1="326.78" y1="432" x2="326.78" y2="437" stroke="#3A3A3A" stroke-width="1"/>
<text x="326.78" y="448" text-anchor="middle" font-size="11" fill="#3A3A3A">0.4</text>
<line x1="437.33" y1="432" x2="437.33" y2="437" stroke="#3A3A3A" stroke-width="1"/>
<text x="437.33" y="448" text-anchor="middle" font-size="11" fill="#3A3A3A">0.6</text>
<line x1="547.89" y1="432" x2="547.89" y2="437" stroke="#3A3A3A" stroke-width="1"/>
<text x="547.89" y="448" text-anchor="middle" font-size="11" fill="#3A3A3A">0.8</text>
<line x1="55" y1="354.75" x2="60" y2="354.75" stroke="#3A3A3A" stroke-width="1"/>
<text x="52" y="358.6" text-anchor="end" font-size="11" fill="#3A3A3A">1</text>
<line x1="55" y1="226" x2="60" y2="226" stroke="#3A3A3A" stroke-width="1"/>
<text x="52" y="229.85" text-anchor="end" font-size="11" fill="#3A3A3A">2</text>
<line x1="55" y1="97.25" x2="60" y2="97.25" stroke="#3A3A3A" stroke-width="1"/>
<text x="52" y="101.1" text-anchor="end" font-size="11" fill="#3A3A3A">3</text>
<text x="342" y="470" text-anchor="middle" font-size="13" fill="#3A3A3A">width</text>
<text x="15" y="226" transform="rotate(-90 15 226)" text-anchor="middle" font-size="13" fill="#3A3A3A">cluster</text>
</svg>
