<svg xmlns="http://www.w3.org/2000/svg" width="640" height="480" viewBox="0 0 640 480" font-family="Helvetica, Arial, sans-serif">
<rect x="0" y="0" width="640" height="480" fill="#FFFFFF"/>
<rect x="60" y="20" width="564" height="412" fill="#FFFFFF"/>
<line x1="97.12" y1="20" x2="97.12" y2="432" stroke="#E4E4E8" stroke-width="1"/>
<line x1="221.3" y1="20" x2="221.3" y2="432" stroke="#E4E4E8" stroke-width="1"/>
<line x1="345.47" y1="20" x2="345.47" y2="432" stroke="#E4E4E8" stroke-width="1"/>
<line x1="469.65" y1="20" x2="469.65" y2="432" stroke="#E4E4E8" stroke-width="1"/>
<line x1="593.82" y1="20" x2="593.82" y2="432" stroke="#E4E4E8" stroke-width="1"/>
<line x1="60" y1="366.27" x2="624" y2="366.27" stroke="#E4E4E8" stroke-width="1"/>
<line x1="60" y1="262.62" x2="624" y2="262.62" stroke="#E4E4E8" stroke-width="1"/>
<line x1="60" y1="158.97" x2="624" y2="158.97" stroke="#E4E4E8" stroke-width="1"/>
<line x1="60" y1="55.32" x2="624" y2="55.32" stroke="#E4E4E8" stroke-width="1"/>
<clipPath id="panel1"><rect x="60" y="20" width="564" height="412"/></clipPath>
<g clip-path="url(#panel1)">
<circle cx="85.64" cy="242.67" r="3" fill="#4A5568" fill-opacity="0.7"/>
<circle cx="85.64" cy="201.21" r="3" fill="#4A5568" fill-opacity="0.7"/>
<circle cx="158.88" cy="293.45" r="3" fill="#4A5568" fill-opacity="0.7"/>
<circle cx="158.88" cy="200.16" r="3" fill="#4A5568" fill-opacity="0.7"/>
<circle cx="183.3" cy="251.63" r="3" fill="#4A5568" fill-opacity="0.7"/>
<circle cx="207.71" cy="303.11" r="3" fill="#4A5568" fill-opacity="0.7"/>
<circle cx="232.13" cy="282.03" r="3" fill="#4A5568" fill-opacity="0.7"/>
<circle cx="232.13" cy="240.57" r="3" fill="#4A5568" fill-opacity="0.7"/>
<circle cx="232.13" cy="199.11" r="3" fill="#4A5568" fill-opacity="0.7"/>
<circle cx="256.55" cy="307.59" r="3" fill="#4A5568" fill-opacity="0.7"/>
<circle cx="256.55" cy="250.58" r="3" fill="#4A5568" fill-opacity="0.7"/>
<circle cx="280.96" cy="343.52" r="3" fill="#4A5568" fill-opacity="0.7"/>
<circle cx="280.96" cy="312.42" r="3" fill="#4A5568" fill-opacity="0.7"/>
<circle cx="280.96" cy="291.69" r="3" fill="#4A5568" fill-opacity="0.7"/>
<circle cx="280.96" cy="270.96" r="3" fill="#4A5568" fill-opacity="0.7"/>
<circle cx="305.38" cy="301.71" r="3" fill="#4A5568" fill-opacity="0.7"/>
<circle cx="305.38" cy="260.25" r="3" fill="#4A5568" fill-opacity="0.7"/>
<circle cx="305.38" cy="260.25" r="3" fill="#4A5568" fill-opacity="0.7"/>
<circle cx="305.38" cy="198.06" r="3" fill="#4A5568" fill-opacity="0.7"/>
<circle cx="329.79" cy="322.09" r="3" fill="#4A5568" fill-opacity="0.7"/>
<circle cx="329.79" cy="270.26" r="3" fill="#4A5568" fill-opacity="0.7"/>
<circle cx="329.79" cy="145.88" r="3" fill="#4A5568" fill-opacity="0.7"/>
<circle cx="329.79" cy="42.23" r="3" fill="#4A5568" fill-opacity="0.7"/>
<circle cx="354.21" cy="373.56" r="3" fill="#4A5568" fill-opacity="0.7"/>
<circle cx="354.21" cy="342.47" r="3" fill="#4A5568" fill-opacity="0.7"/>
<circle cx="354.21" cy="197.36" r="3" fill="#4A5568" fill-opacity="0.7"/>
<circle cx="378.62" cy="331.75" r="3" fill="#4A5568" fill-opacity="0.7"/>
<circle cx="378.62" cy="290.29" r="3" fill="#4A5568" fill-opacity="0.7"/>
<circle cx="403.04" cy="352.13" r="3" fill="#4A5568" fill-opacity="0.7"/>
<circle cx="403.04" cy="310.67" r="3" fill="#4A5568" fill-opacity="0.7"/>
<circle cx="403.04" cy="258.85" r="3" fill="#4A5568" fill-opacity="0.7"/>
<circle cx="427.45" cy="320.69" r="3" fill="#4A5568" fill-opacity="0.7"/>
<circle cx="427.45" cy="248.13" r="3" fill="#4A5568" fill-opacity="0.7"/>
<circle cx="427.45" cy="144.48" r="3" fill="#4A5568" fill-opacity="0.7"/>
<circle cx="427.45" cy="103.02" r="3" fill="#4A5568" fill-opacity="0.7"/>
<circle cx="451.87" cy="372.16" r="3" fill="#4A5568" fill-opacity="0.7"/>
<circle cx="451.87" cy="320.34" r="3" fill="#4A5568" fill-opacity="0.7"/>
<circle cx="451.87" cy="206.32" r="3" fill="#4A5568" fill-opacity="0.7"/>
<circle cx="476.29" cy="413.27" r="3" fill="#4A5568" fill-opacity="0.7"/>
<circle cx="476.29" cy="330.35" r="3" fill="#4A5568" fill-opacity="0.7"/>
<circle cx="476.29" cy="309.62" r="3" fill="#4A5568" fill-opacity="0.7"/>
<circle cx="476.29" cy="288.89" r="3" fill="#4A5568" fill-opacity="0.7"/>
<circle cx="476.29" cy="247.43" r="3" fill="#4A5568" fill-opacity="0.7"/>
<circle cx="525.12" cy="277.83" r="3" fill="#4A5568" fill-opacity="0.7"/>
<circle cx="549.53" cy="360.4" r="3" fill="#4A5568" fill-opacity="0.7"/>
<circle cx="573.95" cy="297.86" r="3" fill="#4A5568" fill-opacity="0.7"/>
<circle cx="573.95" cy="183.84" r="3" fill="#4A5568" fill-opacity="0.7"/>
<circle cx="573.95" cy="178.66" r="3" fill="#4A5568" fill-opacity="0.7"/>
<circle cx="573.95" cy="38.73" r="3" fill="#4A5568" fill-opacity="0.7"/>
<circle cx="598.36" cy="240.5" r="3" fill="#4A5568" fill-opacity="0.7"/>
<polyline points="60,262.62 624,262.62" fill="none" stroke="#9A9AA6" stroke-width="1" stroke-opacity="1" stroke-linejoin="round" stroke-linecap="round" stroke-dasharray="4,3"/>
<polyline points="85.64,222.49 94.33,226.4 103.02,230.1 111.71,233.59 120.4,236.87 129.09,239.95 137.78,242.83 146.47,245.52 155.16,248.02 163.85,250.35 172.54,252.49 181.23,254.46 189.92,256.26 198.61,257.9 207.3,259.38 215.99,260.62 224.68,261.57 233.37,262.28 242.06,262.79 250.75,263.15 259.44,263.41 268.13,263.63 276.82,263.85 285.51,264.08 294.2,264.18 302.89,264.22 311.58,264.21 320.27,264.01 328.96,263.73 337.65,263.5 346.35,263.45 355.04,263.7 363.73,263.91 372.42,263.97 381.11,264.18 389.8,264.84 398.49,266.24 407.18,268.79 415.87,273.11 424.56,278.36 433.25,283.5 441.94,287.49 450.63,289.29 459.32,288.99 468.01,288.02 476.7,286.41 485.39,284.12 494.08,281.14 502.77,277.44 511.46,273.01 520.15,267.82 528.84,261.87 537.53,255.18 546.22,247.76 554.91,239.6 563.6,230.67 572.29,220.96 580.98,210.45 589.67,199.13 598.36,186.99" fill="none" stroke="#E05A2B" stroke-width="2" stroke-opacity="1" stroke-linejoin="round" stroke-linecap="round"/>
</g>
<text x="97.12" y="448" text-anchor="middle" font-size="11" fill="#3A3A3A">0</text>
<text x="221.3" y="448" text-anchor="middle" font-size="11" fill="#3A3A3A">20</text>
<text x="345.47" y="448" text-anchor="middle" font-size="11" fill="#3A3A3A">40</text>
<text x="469.65" y="448" text-anchor="middle" font-size="11" fill="#3A3A3A">60</text>
<text x="593.82" y="448" text-anchor="middle" font-size="11" fill="#3A3A3A">80</text>
<text x="52" y="370.12" text-anchor="end" font-size="11" fill="#3A3A3A">-20</text>
<text x="52" y="266.47" text-anchor="end" font-size="11" fill="#3A3A3A">0</text>
<text x="52" y="162.82" text-anchor="end" font-size="11" fill="#3A3A3A">20</text>
<text x="52" y="59.17" text-anchor="end" font-size="11" fill="#3A3A3A">40</text>
<text x="342" y="470" text-anchor="middle" font-size="13" fill="#3A3A3A">fitted</text>
<text x="15" y="226" transform="rotate(-90 15 226)" text-anchor="middle" font-size="13" fill="#3A3A3A">resid</text>
</svg>
