<svg xmlns="http://www.w3.org/2000/svg" width="640" height="480" viewBox="0 0 640 480" font-family="Helvetica, Arial, sans-serif">
<rect x="0" y="0" width="640" height="480" fill="#FFFFFF"/>
<text x="10" y="25" text-anchor="start" font-family="Helvetica, Arial, sans-serif" font-size="17" font-weight="bold" fill="#1A1A22">theme_ggplot3</text>
<text x="10" y="43" text-anchor="start" font-size="12" fill="#5A5A66">iris sepal dimensions</text>
<rect x="60" y="65" width="475" height="367" fill="#F4F4F6"/>
<line x1="165.56" y1="65" x2="165.56" y2="432" stroke="#FFFFFF" stroke-width="1"/>
<line x1="285.51" y1="65" x2="285.51" y2="432" stroke="#FFFFFF" stroke-width="1"/>
<line x1="405.45" y1="65" x2="405.45" y2="432" stroke="#FFFFFF" stroke-width="1"/>
<line x1="525.4" y1="65" x2="525.4" y2="432" stroke="#FFFFFF" stroke-width="1"/>
<line x1="60" y1="415.32" x2="535" y2="415.32" stroke="#FFFFFF" stroke-width="1"/>
<line x1="60" y1="345.81" x2="535" y2="345.81" stroke="#FFFFFF" stroke-width="1"/>
<line x1="60" y1="276.3" x2="535" y2="276.3" stroke="#FFFFFF" stroke-width="1"/>
<line x1="60" y1="206.8" x2="535" y2="206.8" stroke="#FFFFFF" stroke-width="1"/>
<line x1="60" y1="137.29" x2="535" y2="137.29" stroke="#FFFFFF" stroke-width="1"/>
<line x1="60" y1="67.78" x2="535" y2="67.78" stroke="#FFFFFF" stroke-width="1"/>
<clipPath id="panel1"><rect x="60" y="65" width="475" height="367"/></clipPath>
<g clip-path="url(#panel1)">
<circle cx="177.55" cy="206.8" r="3" fill="#E69F00" fill-opacity="0.85"/>
<circle cx="153.56" cy="276.3" r="3" fill="#E69F00" fill-opacity="0.85"/>
<circle cx="129.57" cy="248.5" r="3" fill="#E69F00" fill-opacity="0.85"/>
<circle cx="117.58" cy="262.4" r="3" fill="#E69F00" fill-opacity="0.85"/>
<circle cx="165.56" cy="192.89" r="3" fill="#E69F00" fill-opacity="0.85"/>
<circle cx="213.54" cy="151.19" r="3" fill="#E69F00" fill-opacity="0.85"/>
<circle cx="117.58" cy="220.7" r="3" fill="#E69F00" fill-opacity="0.85"/>
<circle cx="165.56" cy="220.7" r="3" fill="#E69F00" fill-opacity="0.85"/>
<circle cx="93.59" cy="290.2" r="3" fill="#E69F00" fill-opacity="0.85"/>
<circle cx="153.56" cy="262.4" r="3" fill="#E69F00" fill-opacity="0.85"/>
<circle cx="213.54" cy="178.99" r="3" fill="#E69F00" fill-opacity="0.85"/>
<circle cx="141.57" cy="220.7" r="3" fill="#E69F00" fill-opacity="0.85"/>
<circle cx="141.57" cy="276.3" r="3" fill="#E69F00" fill-opacity="0.85"/>
<circle cx="81.59" cy="276.3" r="3" fill="#E69F00" fill-opacity="0.85"/>
<circle cx="261.52" cy="137.29" r="3" fill="#E69F00" fill-opacity="0.85"/>
<circle cx="249.52" cy="81.68" r="3" fill="#E69F00" fill-opacity="0.85"/>
<circle cx="213.54" cy="151.19" r="3" fill="#E69F00" fill-opacity="0.85"/>
<circle cx="177.55" cy="206.8" r="3" fill="#E69F00" fill-opacity="0.85"/>
<circle cx="249.52" cy="165.09" r="3" fill="#E69F00" fill-opacity="0.85"/>
<circle cx="177.55" cy="165.09" r="3" fill="#E69F00" fill-opacity="0.85"/>
<circle cx="213.54" cy="220.7" r="3" fill="#E69F00" fill-opacity="0.85"/>
<circle cx="177.55" cy="178.99" r="3" fill="#E69F00" fill-opacity="0.85"/>
<circle cx="117.58" cy="192.89" r="3" fill="#E69F00" fill-opacity="0.85"/>
<circle cx="177.55" cy="234.6" r="3" fill="#E69F00" fill-opacity="0.85"/>
<circle cx="141.57" cy="220.7" r="3" fill="#E69F00" fill-opacity="0.85"/>
<circle cx="165.56" cy="276.3" r="3" fill="#E69F00" fill-opacity="0.85"/>
<circle cx="165.56" cy="220.7" r="3" fill="#E69F00" fill-opacity="0.85"/>
<circle cx="189.55" cy="206.8" r="3" fill="#E69F00" fill-opacity="0.85"/>
<circle cx="189.55" cy="220.7" r="3" fill="#E69F00" fill-opacity="0.85"/>
<circle cx="129.57" cy="248.5" r="3" fill="#E69F00" fill-opacity="0.85"/>
<circle cx="141.57" cy="262.4" r="3" fill="#E69F00" fill-opacity="0.85"/>
<circle cx="213.54" cy="220.7" r="3" fill="#E69F00" fill-opacity="0.85"/>
<circle cx="189.55" cy="123.39" r="3" fill="#E69F00" fill-opacity="0.85"/>
<circle cx="225.53" cy="109.48" r="3" fill="#E69F00" fill-opacity="0.85"/>
<circle cx="153.56" cy="262.4" r="3" fill="#E69F00" fill-opacity="0.85"/>
<circle cx="165.56" cy="248.5" r="3" fill="#E69F00" fill-opacity="0.85"/>
<circle cx="225.53" cy="206.8" r="3" fill="#E69F00" fill-opacity="0.85"/>
<circle cx="153.56" cy="192.89" r="3" fill="#E69F00" fill-opacity="0.85"/>
<circle cx="93.59" cy="276.3" r="3" fill="#E69F00" fill-opacity="0.85"/>
<circle cx="177.55" cy="220.7" r="3" fill="#E69F00" fill-opacity="0.85"/>
<circle cx="165.56" cy="206.8" r="3" fill="#E69F00" fill-opacity="0.85"/>
<circle cx="105.58" cy="373.61" r="3" fill="#E69F00" fill-opacity="0.85"/>
<circle cx="93.59" cy="248.5" r="3" fill="#E69F00" fill-opacity="0.85"/>
<circle cx="165.56" cy="206.8" r="3" fill="#E69F00" fill-opacity="0.85"/>
<circle cx="177.55" cy="165.09" r="3" fill="#E69F00" fill-opacity="0.85"/>
<circle cx="141.57" cy="276.3" r="3" fill="#E69F00" fill-opacity="0.85"/>
<circle cx="177.55" cy="165.09" r="3" fill="#E69F00" fill-opacity="0.85"/>
<circle cx="117.58" cy="248.5" r="3" fill="#E69F00" fill-opacity="0.85"/>
<circle cx="201.54" cy="178.99" r="3" fill="#E69F00" fill-opacity="0.85"/>
<circle cx="165.56" cy="234.6" r="3" fill="#E69F00" fill-opacity="0.85"/>
<circle cx="405.45" cy="248.5" r="3" fill="#56B4E9" fill-opacity="0.85"/>
<circle cx="333.48" cy="248.5" r="3" fill="#56B4E9" fill-opacity="0.85"/>
<circle cx="393.46" cy="262.4" r="3" fill="#56B4E9" fill-opacity="0.85"/>
<circle cx="225.53" cy="373.61" r="3" fill="#56B4E9" fill-opacity="0.85"/>
<circle cx="345.48" cy="304.11" r="3" fill="#56B4E9" fill-opacity="0.85"/>
<circle cx="249.52" cy="304.11" r="3" fill="#56B4E9" fill-opacity="0.85"/>
<circle cx="321.49" cy="234.6" r="3" fill="#56B4E9" fill-opacity="0.85"/>
<circle cx="153.56" cy="359.71" r="3" fill="#56B4E9" fill-opacity="0.85"/>
<circle cx="357.47" cy="290.2" r="3" fill="#56B4E9" fill-opacity="0.85"/>
<circle cx="189.55" cy="318.01" r="3" fill="#56B4E9" fill-opacity="0.85"/>
<circle cx="165.56" cy="415.32" r="3" fill="#56B4E9" fill-opacity="0.85"/>
<circle cx="273.51" cy="276.3" r="3" fill="#56B4E9" fill-opacity="0.85"/>
<circle cx="285.51" cy="387.52" r="3" fill="#56B4E9" fill-opacity="0.85"/>
<circle cx="297.5" cy="290.2" r="3" fill="#56B4E9" fill-opacity="0.85"/>
<circle cx="237.53" cy="290.2" r="3" fill="#56B4E9" fill-opacity="0.85"/>
<circle cx="369.47" cy="262.4" r="3" fill="#56B4E9" fill-opacity="0.85"/>
<circle cx="237.53" cy="276.3" r="3" fill="#56B4E9" fill-opacity="0.85"/>
<circle cx="261.52" cy="318.01" r="3" fill="#56B4E9" fill-opacity="0.85"/>
<circle cx="309.49" cy="387.52" r="3" fill="#56B4E9" fill-opacity="0.85"/>
<circle cx="237.53" cy="345.81" r="3" fill="#56B4E9" fill-opacity="0.85"/>
<circle cx="273.51" cy="248.5" r="3" fill="#56B4E9" fill-opacity="0.85"/>
<circle cx="297.5" cy="304.11" r="3" fill="#56B4E9" fill-opacity="0.85"/>
<circle cx="321.49" cy="345.81" r="3" fill="#56B4E9" fill-opacity="0.85"/>
<circle cx="297.5" cy="304.11" r="3" fill="#56B4E9" fill-opacity="0.85"/>
<circle cx="333.48" cy="290.2" r="3" fill="#56B4E9" fill-opacity="0.85"/>
<circle cx="357.47" cy="276.3" r="3" fill="#56B4E9" fill-opacity="0.85"/>
<circle cx="381.46" cy="304.11" r="3" fill="#56B4E9" fill-opacity="0.85"/>
<circle cx="369.47" cy="276.3" r="3" fill="#56B4E9" fill-opacity="0.85"/>
<circle cx="285.51" cy="290.2" r="3" fill="#56B4E9" fill-opacity="0.85"/>
<circle cx="249.52" cy="331.91" r="3" fill="#56B4E9" fill-opacity="0.85"/>
<circle cx="225.53" cy="359.71" r="3" fill="#56B4E9" fill-opacity="0.85"/>
<circle cx="225.53" cy="359.71" r="3" fill="#56B4E9" fill-opacity="0.85"/>
<circle cx="261.52" cy="318.01" r="3" fill="#56B4E9" fill-opacity="0.85"/>
<circle cx="285.51" cy="318.01" r="3" fill="#56B4E9" fill-opacity="0.85"/>
<circle cx="213.54" cy="276.3" r="3" fill="#56B4E9" fill-opacity="0.85"/>
<circle cx="285.51" cy="220.7" r="3" fill="#56B4E9" fill-opacity="0.85"/>
<circle cx="369.47" cy="262.4" r="3" fill="#56B4E9" fill-opacity="0.85"/>
<circle cx="321.49" cy="373.61" r="3" fill="#56B4E9" fill-opacity="0.85"/>
<circle cx="237.53" cy="276.3" r="3" fill="#56B4E9" fill-opacity="0.85"/>
<circle cx="225.53" cy="345.81" r="3" fill="#56B4E9" fill-opacity="0.85"/>
<circle cx="225.53" cy="331.91" r="3" fill="#56B4E9" fill-opacity="0.85"/>
<circle cx="297.5" cy="276.3" r="3" fill="#56B4E9" fill-opacity="0.85"/>
<circle cx="261.52" cy="331.91" r="3" fill="#56B4E9" fill-opacity="0.85"/>
<circle cx="165.56" cy="373.61" r="3" fill="#56B4E9" fill-opacity="0.85"/>
<circle cx="237.53" cy="318.01" r="3" fill="#56B4E9" fill-opacity="0.85"/>
<circle cx="249.52" cy="276.3" r="3" fill="#56B4E9" fill-opacity="0.85"/>
<circle cx="249.52" cy="290.2" r="3" fill="#56B4E9" fill-opacity="0.85"/>
<circle cx="309.49" cy="290.2" r="3" fill="#56B4E9" fill-opacity="0.85"/>
<circle cx="177.55" cy="345.81" r="3" fill="#56B4E9" fill-opacity="0.85"/>
<circle cx="249.52" cy="304.11" r="3" fill="#56B4E9" fill-opacity="0.85"/>
<circle cx="321.49" cy="234.6" r="3" fill="#009E73" fill-opacity="0.85"/>
<circle cx="261.52" cy="318.01" r="3" fill="#009E73" fill-opacity="0.85"/>
<circle cx="417.45" cy="276.3" r="3" fill="#009E73" fill-opacity="0.85"/>
<circle cx="321.49" cy="290.2" r="3" fill="#009E73" fill-opacity="0.85"/>
<circle cx="345.48" cy="276.3" r="3" fill="#009E73" fill-opacity="0.85"/>
<circle cx="477.42" cy="276.3" r="3" fill="#009E73" fill-opacity="0.85"/>
<circle cx="153.56" cy="345.81" r="3" fill="#009E73" fill-opacity="0.85"/>
<circle cx="441.44" cy="290.2" r="3" fill="#009E73" fill-opacity="0.85"/>
<circle cx="369.47" cy="345.81" r="3" fill="#009E73" fill-opacity="0.85"/>
<circle cx="429.44" cy="192.89" r="3" fill="#009E73" fill-opacity="0.85"/>
<circle cx="345.48" cy="248.5" r="3" fill="#009E73" fill-opacity="0.85"/>
<circle cx="333.48" cy="318.01" r="3" fill="#009E73" fill-opacity="0.85"/>
<circle cx="381.46" cy="276.3" r="3" fill="#009E73" fill-opacity="0.85"/>
<circle cx="249.52" cy="345.81" r="3" fill="#009E73" fill-opacity="0.85"/>
<circle cx="261.52" cy="304.11" r="3" fill="#009E73" fill-opacity="0.85"/>
<circle cx="333.48" cy="248.5" r="3" fill="#009E73" fill-opacity="0.85"/>
<circle cx="345.48" cy="276.3" r="3" fill="#009E73" fill-opacity="0.85"/>
<circle cx="489.42" cy="165.09" r="3" fill="#009E73" fill-opacity="0.85"/>
<circle cx="489.42" cy="331.91" r="3" fill="#009E73" fill-opacity="0.85"/>
<circle cx="285.51" cy="387.52" r="3" fill="#009E73" fill-opacity="0.85"/>
<circle cx="393.46" cy="248.5" r="3" fill="#009E73" fill-opacity="0.85"/>
<circle cx="237.53" cy="304.11" r="3" fill="#009E73" fill-opacity="0.85"/>
<circle cx="489.42" cy="304.11" r="3" fill="#009E73" fill-opacity="0.85"/>
<circle cx="321.49" cy="318.01" r="3" fill="#009E73" fill-opacity="0.85"/>
<circle cx="369.47" cy="234.6" r="3" fill="#009E73" fill-opacity="0.85"/>
<circle cx="429.44" cy="248.5" r="3" fill="#009E73" fill-opacity="0.85"/>
<circle cx="309.49" cy="304.11" r="3" fill="#009E73" fill-opacity="0.85"/>
<circle cx="297.5" cy="276.3" r="3" fill="#009E73" fill-opacity="0.85"/>
<circle cx="333.48" cy="304.11" r="3" fill="#009E73" fill-opacity="0.85"/>
<circle cx="429.44" cy="276.3" r="3" fill="#009E73" fill-opacity="0.85"/>
<circle cx="453.43" cy="304.11" r="3" fill="#009E73" fill-opacity="0.85"/>
<circle cx="513.41" cy="165.09" r="3" fill="#009E73" fill-opacity="0.85"/>
<circle cx="333.48" cy="304.11" r="3" fill="#009E73" fill-opacity="0.85"/>
<circle cx="321.49" cy="304.11" r="3" fill="#009E73" fill-opacity="0.85"/>
<circle cx="297.5" cy="331.91" r="3" fill="#009E73" fill-opacity="0.85"/>
<circle cx="489.42" cy="276.3" r="3" fill="#009E73" fill-opacity="0.85"/>
<circle cx="321.49" cy="220.7" r="3" fill="#009E73" fill-opacity="0.85"/>
<circle cx="333.48" cy="262.4" r="3" fill="#009E73" fill-opacity="0.85"/>
<circle cx="285.51" cy="276.3" r="3" fill="#009E73" fill-opacity="0.85"/>
<circle cx="393.46" cy="262.4" r="3" fill="#009E73" fill-opacity="0.85"/>
<circle cx="369.47" cy="262.4" r="3" fill="#009E73" fill-opacity="0.85"/>
<circle cx="393.46" cy="262.4" r="3" fill="#009E73" fill-opacity="0.85"/>
<circle cx="261.52" cy="318.01" r="3" fill="#009E73" fill-opacity="0.85"/>
<circle cx="381.46" cy="248.5" r="3" fill="#009E73" fill-opacity="0.85"/>
<circle cx="369.47" cy="234.6" r="3" fill="#009E73" fill-opacity="0.85"/>
<circle cx="369.47" cy="276.3" r="3" fill="#009E73" fill-opacity="0.85"/>
<circle cx="321.49" cy="345.81" r="3" fill="#009E73" fill-opacity="0.85"/>
<circle cx="345.48" cy="276.3" r="3" fill="#009E73" fill-opacity="0.85"/>
<circle cx="309.49" cy="220.7" r="3" fill="#009E73" fill-opacity="0.85"/>
<circle cx="273.51" cy="276.3" r="3" fill="#009E73" fill-opacity="0.85"/>
</g>
<line x1="60" y1="432" x2="535" y2="432" stroke="#3A3A3A" stroke-width="1"/>
<line x1="60" y1="65" x2="60" y2="432" stroke="#3A3A3A" stroke-width="1"/>
<line x1="165.56" y1="432" x2="165.56" y2="437" stroke="#3A3A3A" stroke-width="1"/>
<text x="165.56" y="448" text-anchor="middle" font-size="11" fill="#3A3A3A">5</text>
<line x1="285.51" y1="432" x2="285.51" y2="437" stroke="#3A3A3A" stroke-width="1"/>
<text x="285.51" y="448" text-anchor="middle" font-size="11" fill="#3A3A3A">6</text>
<line x1="405.45" y1="432" x2="405.45" y2="437" stroke="#3A3A3A" stroke-width="1"/>
<text x="405.45" y="448" text-anchor="middle" font-size="11" fill="#3A3A3A">7</text>
<line x1="525.4" y1="432" x2="525.4" y2="437" stroke="#3A3A3A" stroke-width="1"/>
<text x="525.4" y="448" text-anchor="middle" font-size="11" fill="#3A3A3A">8</text>
<line x1="55" y1="415.32" x2="60" y2="415.32" stroke="#3A3A3A" stroke-width="1"/>
<text x="52" y="419.17" text-anchor="end" font-size="11" fill="#3A3A3A">2</text>
<line x1="55" y1="345.81" x2="60" y2="345.81" stroke="#3A3A3A" stroke-width="1"/>
<text x="52" y="349.66" text-anchor="end" font-size="11" fill="#3A3A3A">2.5</text>
<line x1="55" y1="276.3" x2="60" y2="276.3" stroke="#3A3A3A" stroke-width="1"/>
<text x="52" y="280.15" text-anchor="end" font-size="11" fill="#3A3A3A">3</text>
<line x1="55" y1="206.8" x2="60" y2="206.8" stroke="#3A3A3A" stroke-width="1"/>
<text x="52" y="210.65" text-anchor="end" font-size="11" fill="#3A3A3A">3.5</text>
<line x1="55" y1="137.29" x2="60" y2="137.29" stroke="#3A3A3A" stroke-width="1"/>
<text x="52" y="141.14" text-anchor="end" font-size="11" fill="#3A3A3A">4</text>
<line x1="55" y1="67.78" x2="60" y2="67.78" stroke="#3A3A3A" stroke-width="1"/>
<text x="52" y="71.63" text-anchor="end" font-size="11" fill="#3A3A3A">4.5</text>
<text x="297.5" y="470" text-anchor="middle" font-size="13" fill="#3A3A3A">Sepal.Length</text>
<text x="15" y="248.5" transform="rotate(-90 15 248.5)" text-anchor="middle" font-size="13" fill="#3A3A3A">Sepal.Width</text>
<text x="549" y="73" text-anchor="start" font-size="13" fill="#3A3A3A">Species</text>
<rect x="549" y="83" width="12" height="12" fill="#E69F00"/>
<text x="567" y="93" text-anchor="start" font-size="11" fill="#3A3A3A">setosa</text>
<rect x="549" y="103" width="12" height="12" fill="#56B4E9"/>
<text x="567" y="113" text-anchor="start" font-size="11" fill="#3A3A3A">versicolor</text>
<rect x="549" y="123" width="12" height="12" fill="#009E73"/>
<text x="567" y="133" text-anchor="start" font-size="11" fill="#3A3A3A">virginica</text>
</svg>
